HIERARCHY
ROOT Hips
{
	OFFSET 0.000000 0.000000 0.000000
	CHANNELS 6 Xposition Yposition Zposition Xrotation Yrotation Zrotation
	JOINT LeftUpLeg_virtual
	{
		OFFSET 0.000000 0.000000 0.000000
		CHANNELS 3 Xrotation Yrotation Zrotation
		JOINT LeftUpLeg
		{
			OFFSET 13.026900 -6.336304 -1.092800
			CHANNELS 3 Xrotation Yrotation Zrotation
			JOINT LeftLeg
			{
				OFFSET 0.524474 -46.096886 9.782700
				CHANNELS 3 Xrotation Yrotation Zrotation
				JOINT LeftFoot
				{
					OFFSET -0.524474 -53.427422 -12.948200
					CHANNELS 3 Xrotation Yrotation Zrotation
					JOINT LeftToeBase
					{
						OFFSET 0.192200 -14.009700 16.364100
						CHANNELS 3 Xrotation Yrotation Zrotation
						JOINT LeftToe_End
						{
							OFFSET -1.784700 -0.561700 9.474800
							CHANNELS 3 Xrotation Yrotation Zrotation
							End Site
							{
								OFFSET 0 0 0
							}
						}
					}
				}
			}
		}
	}
	JOINT RightUpLeg_virtual
	{
		OFFSET 0.000000 0.000000 0.000000
		CHANNELS 3 Xrotation Yrotation Zrotation
		JOINT RightUpLeg
		{
			OFFSET -12.883000 -6.336304 -1.092800
			CHANNELS 3 Xrotation Yrotation Zrotation
			JOINT RightLeg
			{
				OFFSET -0.524587 -46.096825 9.782800
				CHANNELS 3 Xrotation Yrotation Zrotation
				JOINT RightFoot
				{
					OFFSET 0.524587 -53.427383 -12.948300
					CHANNELS 3 Xrotation Yrotation Zrotation
					JOINT RightToeBase
					{
						OFFSET -0.192200 -14.009700 16.364100
						CHANNELS 3 Xrotation Yrotation Zrotation
						JOINT RightToe_End
						{
							OFFSET 1.784700 -0.561700 9.474800
							CHANNELS 3 Xrotation Yrotation Zrotation
							End Site
							{
								OFFSET 0 0 0
							}
						}
					}
				}
			}
		}
	}
	JOINT Spine_virtual
	{
		OFFSET 0.000000 0.000000 0.000000
		CHANNELS 3 Xrotation Yrotation Zrotation
		JOINT Spine
		{
			OFFSET 0.072000 7.257294 -0.789700
			CHANNELS 3 Xrotation Yrotation Zrotation
			JOINT Spine1
			{
				OFFSET 0.000000 12.508769 -0.658067
				CHANNELS 3 Xrotation Yrotation Zrotation
				JOINT Spine1_split
				{
					OFFSET 0.000000 12.508769 -0.658067
					CHANNELS 3 Xrotation Yrotation Zrotation
					JOINT Spine2
					{
						OFFSET 0.000000 12.508769 -0.658067
						CHANNELS 3 Xrotation Yrotation Zrotation
						JOINT Neck_virtual
						{
							OFFSET 0.000000 0.000000 0.000000
							CHANNELS 3 Xrotation Yrotation Zrotation
							JOINT Neck
							{
								OFFSET 0.000000 14.033295 7.520400
								CHANNELS 3 Xrotation Yrotation Zrotation
								JOINT Head
								{
									OFFSET 0.000000 8.198502 5.703100
									CHANNELS 3 Xrotation Yrotation Zrotation
									JOINT HeadTop_End
									{
										OFFSET 0.000000 17.760803 13.332701
										CHANNELS 3 Xrotation Yrotation Zrotation
										End Site
										{
											OFFSET 0 0 0
										}
									}
								}
							}
						}
						JOINT LeftShoulder_virtual
						{
							OFFSET 0.000000 0.000000 0.000000
							CHANNELS 3 Xrotation Yrotation Zrotation
							JOINT LeftShoulder
							{
								OFFSET 6.292450 5.785301 -0.669000
								CHANNELS 3 Xrotation Yrotation Zrotation
								JOINT LeftShoulder_split
								{
									OFFSET 6.292450 5.785301 -0.669000
									CHANNELS 3 Xrotation Yrotation Zrotation
									JOINT LeftArm
									{
										OFFSET 13.907140 -6.093903 1.965100
										CHANNELS 3 Xrotation Yrotation Zrotation
										JOINT LeftForeArm
										{
											OFFSET 34.140198 0.000000 0.000000
											CHANNELS 3 Xrotation Yrotation Zrotation
											JOINT LeftHand
											{
												OFFSET 40.960209 0.000000 0.000000
												CHANNELS 3 Xrotation Yrotation Zrotation
												End Site
												{
													OFFSET 0 0 0
												}
											}
										}
									}
								}
							}
						}
						JOINT RightShoulder_virtual
						{
							OFFSET 0.000000 0.000000 0.000000
							CHANNELS 3 Xrotation Yrotation Zrotation
							JOINT RightShoulder
							{
								OFFSET -6.292450 5.785301 -0.669000
								CHANNELS 3 Xrotation Yrotation Zrotation
								JOINT RightShoulder_split
								{
									OFFSET -6.292450 5.785301 -0.669000
									CHANNELS 3 Xrotation Yrotation Zrotation
									JOINT RightArm
									{
										OFFSET -13.907140 -6.093903 1.965100
										CHANNELS 3 Xrotation Yrotation Zrotation
										JOINT RightForeArm
										{
											OFFSET -34.140198 0.000000 0.000000
											CHANNELS 3 Xrotation Yrotation Zrotation
											JOINT RightHand
											{
												OFFSET -40.960209 0.000000 0.000000
												CHANNELS 3 Xrotation Yrotation Zrotation
												End Site
												{
													OFFSET 0 0 0
												}
											}
										}
									}
								}
							}
						}
					}
				}
			}
		}
	}
}
MOTION
Frames: 8
Frame Time: 0.03333333
-39.176758 62.133541 330.819946 0.000000 0.000000 0.000000 -172.279760 15.289295 -179.652130 -82.429441 0.280954 32.372949 94.036801 -4.626778 -3.978618 -0.987450 -8.274626 8.347279 -5.044881 0.100152 -0.882419 0.000000 0.000000 0.000000 -172.372063 14.634193 179.599442 -88.099448 9.890453 -22.872319 99.133762 1.164092 4.156145 -7.394444 4.255957 -5.345737 2.668840 1.550711 1.735804 0.000000 0.000000 0.000000 -172.255390 16.944875 -178.015903 18.435837 -3.214555 -7.658654 3.992076 -0.227064 -2.611544 0.842777 -0.332705 0.438481 0.000000 0.000000 0.000000 4.610032 -0.741489 -1.817537 -1.671186 -0.110685 -1.076408 -20.296372 0.258100 7.780242 0.000000 0.000000 0.000000 3.875966 -0.523010 -2.399318 0.981528 -2.820612 -11.262644 -3.241866 0.028364 1.467844 -15.275009 -40.344910 -44.400358 0.356278 -58.460750 0.861507 0.000000 0.000000 0.000000 4.920616 -0.606373 -1.872229 -2.668333 18.987832 -1.595858 -1.428447 0.800118 0.582719 -25.655452 26.282669 30.571445 -179.997519 69.042585 179.653004 0.000000 0.000000 0.000000 
-39.160812 62.133560 330.789764 0.000000 0.000000 0.000000 -172.320154 15.332612 -179.688931 -82.459399 0.204039 32.345249 94.110574 -4.643206 -3.981316 -0.971595 -8.258664 8.387160 -5.052950 0.100450 -0.900103 0.000000 0.000000 0.000000 -172.419629 14.646907 179.571315 -88.155305 9.804013 -22.906593 99.134547 1.159789 4.177803 -7.383137 4.219510 -5.364788 2.701755 1.546024 1.736375 0.000000 0.000000 0.000000 -172.303762 16.967737 -178.021600 18.355618 -3.161091 -7.693202 3.964058 -0.213580 -2.616186 0.842441 -0.340995 0.443090 0.000000 0.000000 0.000000 4.581562 -0.712409 -1.846739 -1.651738 -0.245345 -1.009422 -21.050045 0.105786 7.868314 0.000000 0.000000 0.000000 3.893366 -0.512711 -2.410222 0.963914 -2.817355 -11.266091 -3.437784 0.129122 1.395763 -15.226005 -40.462478 -44.342066 0.425457 -58.321606 0.930318 0.000000 0.000000 0.000000 4.908906 -0.583243 -1.895119 -2.989631 18.156673 -2.495448 -1.352733 0.760253 0.593876 -27.317917 26.534675 31.091154 179.738969 68.178914 -179.956183 0.000000 0.000000 0.000000 
-39.148254 62.135216 330.769409 0.000000 0.000000 0.000000 -172.359878 15.391741 -179.740089 -82.495448 0.128039 32.312816 94.173214 -4.658786 -3.968062 -0.948180 -8.238040 8.415357 -5.062660 0.099556 -0.917455 0.000000 0.000000 0.000000 -172.464831 14.681391 179.527465 -88.207139 9.708959 -22.945285 99.142347 1.152929 4.198521 -7.357873 4.173689 -5.376229 2.728882 1.541838 1.735202 0.000000 0.000000 0.000000 -172.349182 17.013880 -178.049549 18.272088 -3.120141 -7.709579 3.943429 -0.210681 -2.612454 0.842045 -0.359117 0.447904 0.000000 0.000000 0.000000 4.561630 -0.690675 -1.867423 -1.643794 -0.372383 -0.952257 -21.756456 -0.070399 7.948684 0.000000 0.000000 0.000000 3.931689 -0.516777 -2.408738 0.943375 -2.839373 -11.317614 -3.626179 0.191225 1.353613 -15.112255 -40.566915 -44.278972 0.475341 -58.236734 0.958414 0.000000 0.000000 0.000000 4.903464 -0.572436 -1.906701 -3.266475 17.452445 -3.196735 -1.240418 0.706727 0.563284 -28.814820 26.814124 31.419516 179.595712 67.610328 -179.687415 0.000000 0.000000 0.000000 
-39.143543 62.141727 330.757141 0.000000 0.000000 0.000000 -172.400450 15.470812 -179.799935 -82.538526 0.058904 32.272753 94.215629 -4.674251 -3.940496 -0.911800 -8.218711 8.425087 -5.082202 0.096322 -0.930220 0.000000 0.000000 0.000000 -172.507820 14.744667 179.470747 -88.248127 9.610629 -22.987034 99.149321 1.140833 4.218952 -7.333189 4.119349 -5.390237 2.760455 1.538078 1.734667 0.000000 0.000000 0.000000 -172.390382 17.082368 -178.101322 18.184598 -3.090256 -7.708538 3.931122 -0.216959 -2.600371 0.862974 -0.377624 0.442875 0.000000 0.000000 0.000000 4.550285 -0.677044 -1.877099 -1.640511 -0.491580 -0.909375 -22.419713 -0.265496 8.014335 0.000000 0.000000 0.000000 3.980755 -0.530514 -2.395052 0.921081 -2.885709 -11.399686 -3.831734 0.215079 1.351649 -14.944729 -40.649663 -44.198461 0.478145 -58.183622 0.929852 0.000000 0.000000 0.000000 4.899792 -0.572448 -1.906429 -3.501596 16.850142 -3.742266 -1.108771 0.618118 0.509923 -30.174181 27.128458 31.597193 179.542642 67.173442 -179.523982 0.000000 0.000000 0.000000 
-39.146961 62.150551 330.751678 0.000000 0.000000 0.000000 -172.440529 15.569604 -179.864781 -82.584780 -0.001935 32.221366 94.238476 -4.688848 -3.901197 -0.861647 -8.200858 8.420923 -5.108306 0.090531 -0.938605 0.000000 0.000000 0.000000 -172.549198 14.835765 179.410027 -88.277005 9.518196 -23.029514 99.153248 1.123769 4.238988 -7.315696 4.062328 -5.413464 2.800306 1.534655 1.736442 0.000000 0.000000 0.000000 -172.427839 17.167390 -178.168258 18.093086 -3.069124 -7.695267 3.925690 -0.228636 -2.583188 0.902463 -0.404288 0.433695 0.000000 0.000000 0.000000 4.543547 -0.670916 -1.878414 -1.636344 -0.603488 -0.882473 -23.040892 -0.467588 8.060280 0.000000 0.000000 0.000000 4.032168 -0.549600 -2.374247 0.899507 -2.947557 -11.491002 -4.042815 0.217313 1.377891 -14.747550 -40.699881 -44.099332 0.417971 -58.127574 0.846063 0.000000 0.000000 0.000000 4.894035 -0.580644 -1.897652 -3.709141 16.311458 -4.193923 -1.009947 0.489997 0.438482 -31.438111 27.463870 31.704843 179.550824 66.746118 -179.453194 0.000000 0.000000 0.000000 
-39.159100 62.160721 330.751953 0.000000 0.000000 0.000000 -172.479625 15.683991 -179.926826 -82.631280 -0.054590 32.157951 94.242233 -4.700596 -3.856467 -0.805093 -8.182263 8.408475 -5.129855 0.082395 -0.945484 0.000000 0.000000 0.000000 -172.589168 14.944287 179.350686 -88.297673 9.439231 -23.072948 99.151630 1.105299 4.256556 -7.301470 4.009249 -5.439480 2.840840 1.531292 1.739724 0.000000 0.000000 0.000000 -172.460187 17.265011 -178.245138 18.000117 -3.054088 -7.677148 3.923546 -0.242061 -2.564954 0.942486 -0.417375 0.422494 0.000000 0.000000 0.000000 4.534179 -0.669572 -1.874085 -1.625634 -0.710134 -0.870807 -23.619597 -0.666358 8.088196 0.000000 0.000000 0.000000 4.074188 -0.570191 -2.352696 0.879293 -3.014915 -11.582595 -4.247059 0.208484 1.425508 -14.534651 -40.705557 -43.972030 0.298190 -58.027382 0.718702 0.000000 0.000000 0.000000 4.882617 -0.592447 -1.885522 -3.903569 15.808539 -4.604804 -0.918672 0.372462 0.337933 -32.665171 27.757493 31.832028 179.596040 66.299157 -179.460024 0.000000 0.000000 0.000000 
-39.177055 62.172382 330.754364 0.000000 0.000000 0.000000 -172.517560 15.805199 -179.979883 -82.671387 -0.103134 32.082911 94.230458 -4.706627 -3.814382 -0.753891 -8.158802 8.396436 -5.139938 0.072383 -0.954451 0.000000 0.000000 0.000000 -172.627854 15.061269 179.297301 -88.313752 9.376724 -23.112771 99.143795 1.092092 4.266344 -7.288180 3.970332 -5.450809 2.868550 1.527200 1.742074 0.000000 0.000000 0.000000 -172.488368 17.369941 -178.318672 17.908017 -3.043434 -7.661381 3.921122 -0.255044 -2.547234 0.980526 -0.434139 0.425006 0.000000 0.000000 0.000000 4.516789 -0.672138 -1.869003 -1.612155 -0.814859 -0.870340 -24.166787 -0.852915 8.093861 0.000000 0.000000 0.000000 4.101964 -0.588789 -2.336728 0.860264 -3.077712 -11.667579 -4.421494 0.197282 1.470071 -14.337665 -40.676707 -43.839894 0.139024 -57.876796 0.573547 0.000000 0.000000 0.000000 4.864831 -0.603723 -1.873923 -4.103481 15.324701 -5.012611 -0.828630 0.271938 0.244928 -33.857422 27.977619 32.036131 179.637759 65.875467 -179.507152 0.000000 0.000000 0.000000 
-39.198242 62.184456 330.751801 0.000000 0.000000 0.000000 -172.554416 15.923124 179.981126 -82.702799 -0.151864 31.999030 94.204080 -4.708488 -3.779471 -0.715979 -8.130529 8.386948 -5.139780 0.061352 -0.966188 0.000000 0.000000 0.000000 -172.665748 15.174974 179.254135 -88.324769 9.329056 -23.148269 99.133618 1.087905 4.266098 -7.275066 3.952703 -5.440438 2.879465 1.522230 1.742071 0.000000 0.000000 0.000000 -172.513448 17.475775 -178.378313 17.819975 -3.037411 -7.653972 3.915694 -0.266378 -2.532188 1.000371 -0.448568 0.447289 0.000000 0.000000 0.000000 4.491211 -0.677018 -1.865727 -1.597565 -0.916395 -0.879323 -24.689168 -1.016128 8.073263 0.000000 0.000000 0.000000 4.110482 -0.605434 -2.328360 0.840511 -3.127686 -11.748923 -4.551049 0.163927 1.498183 -14.154871 -40.633321 -43.706848 -0.015399 -57.713705 0.446341 0.000000 0.000000 0.000000 4.839264 -0.612975 -1.864891 -4.321814 14.849668 -5.426808 -0.720375 0.206238 0.160333 -34.987309 28.109439 32.348032 179.666350 65.542167 -179.577694 0.000000 0.000000 0.000000 
